<svg version="1.1" viewBox="0.0 0.0 960.0 540.0" fill="none" stroke="none" stroke-linecap="square" stroke-miterlimit="10" xmlns:xlink="http://www.w3.org/1999/xlink" xmlns="http://www.w3.org/2000/svg"><clipPath id="p.0"><path d="m0 0l960.0 0l0 540.0l-960.0 0l0 -540.0z" clip-rule="nonzero"/></clipPath><g clip-path="url(#p.0)"><path fill="#000000" fill-opacity="0.0" d="m0 0l960.0 0l0 540.0l-960.0 0z" fill-rule="evenodd"/><path fill="#666666" d="m197.11427 151.4533l0 0c0 -7.139923 5.7880707 -12.927994 12.928009 -12.927994l146.74745 0c3.4287415 0 6.7170105 1.3620605 9.1414795 3.7865295c2.424469 2.424469 3.7865295 5.7127533 3.7865295 9.141464l0 244.06294c0 7.1399536 -5.7880554 12.928009 -12.928009 12.928009l-146.74745 0c-7.1399384 0 -12.928009 -5.7880554 -12.928009 -12.928009z" fill-rule="evenodd"/><path stroke="#000000" stroke-width="1.0" stroke-linejoin="round" stroke-linecap="butt" d="m197.11427 151.4533l0 0c0 -7.139923 5.7880707 -12.927994 12.928009 -12.927994l146.74745 0c3.4287415 0 6.7170105 1.3620605 9.1414795 3.7865295c2.424469 2.424469 3.7865295 5.7127533 3.7865295 9.141464l0 244.06294c0 7.1399536 -5.7880554 12.928009 -12.928009 12.928009l-146.74745 0c-7.1399384 0 -12.928009 -5.7880554 -12.928009 -12.928009z" fill-rule="evenodd"/><path fill="#ffffff" d="m209.65445 151.45294l147.52313 0l0 235.72702l-147.52313 0z" fill-rule="evenodd"/><path fill="#ffffff" d="m279.0481 396.35025l0 0c0 -2.1270142 1.9555664 -3.8512878 4.36792 -3.8512878l0 0c2.412323 0 4.36792 1.7242737 4.36792 3.8512878l0 0c0 2.1270142 -1.9555969 3.8512878 -4.36792 3.8512878l0 0c-2.4123535 0 -4.36792 -1.7242737 -4.36792 -3.8512878z" fill-rule="evenodd"/><path fill="#ffffff" d="m212.92651 153.5748l140.7244 0l0 231.90552l-140.7244 0z" fill-rule="evenodd"/><path stroke="#000000" stroke-width="1.0" stroke-linejoin="round" stroke-linecap="butt" d="m212.92651 153.5748l140.7244 0l0 231.90552l-140.7244 0z" fill-rule="evenodd"/><path fill="#cfe2f3" d="m279.6168 159.08136l69.763794 0l0 63.02362l-69.763794 0z" fill-rule="evenodd"/><path stroke="#000000" stroke-width="1.0" stroke-linejoin="round" stroke-linecap="butt" d="m279.6168 159.08136l69.763794 0l0 63.02362l-69.763794 0z" fill-rule="evenodd"/><path fill="#cfe2f3" d="m218.52231 227.08923l130.86615 0l0 63.02362l-130.86615 0z" fill-rule="evenodd"/><path stroke="#000000" stroke-width="1.0" stroke-linejoin="round" stroke-linecap="butt" d="m218.52231 227.08923l130.86615 0l0 63.02362l-130.86615 0z" fill-rule="evenodd"/><path fill="#cfe2f3" d="m272.88715 295.0971l76.50394 0l0 85.480316l-76.50394 0z" fill-rule="evenodd"/><path stroke="#000000" stroke-width="1.0" stroke-linejoin="round" stroke-linecap="butt" d="m272.88715 295.0971l76.50394 0l0 85.480316l-76.50394 0z" fill-rule="evenodd"/><path fill="#cfe2f3" d="m218.52231 159.08136l54.362213 0l0 63.02362l-54.362213 0z" fill-rule="evenodd"/><path stroke="#000000" stroke-width="1.0" stroke-linejoin="round" stroke-linecap="butt" d="m218.52231 159.08136l54.362213 0l0 63.02362l-54.362213 0z" fill-rule="evenodd"/><path fill="#cfe2f3" d="m218.52231 295.0971l48.251984 0l0 37.763794l-48.251984 0z" fill-rule="evenodd"/><path stroke="#000000" stroke-width="1.0" stroke-linejoin="round" stroke-linecap="butt" d="m218.52231 295.0971l48.251984 0l0 37.763794l-48.251984 0z" fill-rule="evenodd"/><path fill="#cfe2f3" d="m218.52231 337.84515l48.251984 0l0 42.740143l-48.251984 0z" fill-rule="evenodd"/><path stroke="#000000" stroke-width="1.0" stroke-linejoin="round" stroke-linecap="butt" d="m218.52231 337.84515l48.251984 0l0 42.740143l-48.251984 0z" fill-rule="evenodd"/><path fill="#ffffff" d="m415.5433 157.5315l140.7244 0l0 231.90552l-140.7244 0z" fill-rule="evenodd"/><path stroke="#000000" stroke-width="1.0" stroke-linejoin="round" stroke-linecap="butt" d="m415.5433 157.5315l140.7244 0l0 231.90552l-140.7244 0z" fill-rule="evenodd"/><path fill="#cfe2f3" d="m482.23358 163.03806l69.763794 0l0 63.02362l-69.763794 0z" fill-rule="evenodd"/><path stroke="#000000" stroke-width="1.0" stroke-linejoin="round" stroke-linecap="butt" d="m482.23358 163.03806l69.763794 0l0 63.02362l-69.763794 0z" fill-rule="evenodd"/><path fill="#cfe2f3" d="m421.1391 231.04593l130.86615 0l0 63.02362l-130.86615 0z" fill-rule="evenodd"/><path stroke="#000000" stroke-width="1.0" stroke-linejoin="round" stroke-linecap="butt" d="m421.1391 231.04593l130.86615 0l0 63.02362l-130.86615 0z" fill-rule="evenodd"/><path fill="#cfe2f3" d="m475.50394 299.0538l76.50394 0l0 85.480316l-76.50394 0z" fill-rule="evenodd"/><path stroke="#000000" stroke-width="1.0" stroke-linejoin="round" stroke-linecap="butt" d="m475.50394 299.0538l76.50394 0l0 85.480316l-76.50394 0z" fill-rule="evenodd"/><path fill="#cfe2f3" d="m421.1391 163.03806l54.362213 0l0 63.02362l-54.362213 0z" fill-rule="evenodd"/><path stroke="#000000" stroke-width="1.0" stroke-linejoin="round" stroke-linecap="butt" d="m421.1391 163.03806l54.362213 0l0 63.02362l-54.362213 0z" fill-rule="evenodd"/><path fill="#cfe2f3" d="m421.1391 299.0538l48.251984 0l0 37.763794l-48.251984 0z" fill-rule="evenodd"/><path stroke="#000000" stroke-width="1.0" stroke-linejoin="round" stroke-linecap="butt" d="m421.1391 299.0538l48.251984 0l0 37.763794l-48.251984 0z" fill-rule="evenodd"/><path fill="#cfe2f3" d="m421.1391 341.80185l48.251984 0l0 42.740143l-48.251984 0z" fill-rule="evenodd"/><path stroke="#000000" stroke-width="1.0" stroke-linejoin="round" stroke-linecap="butt" d="m421.1391 341.80185l48.251984 0l0 42.740143l-48.251984 0z" fill-rule="evenodd"/><path fill="#ffffff" d="m618.1601 157.5328l140.72443 0l0 231.90552l-140.72443 0z" fill-rule="evenodd"/><path stroke="#000000" stroke-width="1.0" stroke-linejoin="round" stroke-linecap="butt" d="m618.1601 157.5328l140.72443 0l0 231.90552l-140.72443 0z" fill-rule="evenodd"/><path fill="#cfe2f3" d="m684.8504 163.03937l69.763794 0l0 63.02362l-69.763794 0z" fill-rule="evenodd"/><path stroke="#000000" stroke-width="1.0" stroke-linejoin="round" stroke-linecap="butt" d="m684.8504 163.03937l69.763794 0l0 63.02362l-69.763794 0z" fill-rule="evenodd"/><path fill="#cfe2f3" d="m623.7559 231.04724l130.86615 0l0 63.02362l-130.86615 0z" fill-rule="evenodd"/><path stroke="#000000" stroke-width="1.0" stroke-linejoin="round" stroke-linecap="butt" d="m623.7559 231.04724l130.86615 0l0 63.02362l-130.86615 0z" fill-rule="evenodd"/><path fill="#cfe2f3" d="m678.1207 299.0551l76.50397 0l0 85.480316l-76.50397 0z" fill-rule="evenodd"/><path stroke="#000000" stroke-width="1.0" stroke-linejoin="round" stroke-linecap="butt" d="m678.1207 299.0551l76.50397 0l0 85.480316l-76.50397 0z" fill-rule="evenodd"/><path fill="#cfe2f3" d="m623.7559 163.03937l54.362183 0l0 63.02362l-54.362183 0z" fill-rule="evenodd"/><path stroke="#000000" stroke-width="1.0" stroke-linejoin="round" stroke-linecap="butt" d="m623.7559 163.03937l54.362183 0l0 63.02362l-54.362183 0z" fill-rule="evenodd"/><path fill="#cfe2f3" d="m623.7559 299.0551l48.251953 0l0 37.763794l-48.251953 0z" fill-rule="evenodd"/><path stroke="#000000" stroke-width="1.0" stroke-linejoin="round" stroke-linecap="butt" d="m623.7559 299.0551l48.251953 0l0 37.763794l-48.251953 0z" fill-rule="evenodd"/><path fill="#cfe2f3" d="m623.7559 341.80316l48.251953 0l0 42.740143l-48.251953 0z" fill-rule="evenodd"/><path stroke="#000000" stroke-width="1.0" stroke-linejoin="round" stroke-linecap="butt" d="m623.7559 341.80316l48.251953 0l0 42.740143l-48.251953 0z" fill-rule="evenodd"/><path fill="#000000" fill-opacity="0.0" d="m283.28873 153.5748c0 -12.499985 50.653534 -25.496048 101.30707 -24.999985c50.653534 0.49606323 101.3071 14.484253 101.3071 28.96849" fill-rule="evenodd"/><path stroke="#ff0000" stroke-width="1.0" stroke-linejoin="round" stroke-linecap="butt" d="m283.28873 153.5748c0 -12.499985 50.653534 -25.496048 101.30707 -24.999985c25.326782 0.24803162 50.653534 3.8690948 69.64862 9.238678c9.497559 2.6847992 17.41217 5.806717 22.952393 9.162704c1.3850403 0.8390045 2.6217346 1.692627 3.6976318 2.5577087c0.53793335 0.4325409 1.035675 0.86795044 1.4917297 1.3058319c0.22796631 0.2189331 0.44555664 0.43847656 0.65249634 0.65859985c0.10348511 0.110061646 0.20428467 0.22026062 0.3024292 0.33059692l0.17941284 0.2076416" fill-rule="evenodd"/><path fill="#ff0000" stroke="#ff0000" stroke-width="1.0" stroke-linecap="butt" d="m482.00455 152.69241l3.317871 3.5091705l-0.28598022 -4.820862z" fill-rule="evenodd"/><path fill="#000000" fill-opacity="0.0" d="m485.9029 153.5748c0 -12.499985 50.653564 -25.496048 101.30707 -24.999985c50.653564 0.49606323 101.30713 14.484253 101.30713 28.96849" fill-rule="evenodd"/><path stroke="#ff0000" stroke-width="1.0" stroke-linejoin="round" stroke-linecap="butt" d="m485.9029 153.5748c0 -12.499985 50.653564 -25.496048 101.30707 -24.999985c25.326782 0.24803162 50.653564 3.8690948 69.64862 9.238678c9.497559 2.6847992 17.41217 5.806717 22.952393 9.162704c1.3850708 0.8390045 2.621704 1.692627 3.6976318 2.5577087c0.53796387 0.4325409 1.0357056 0.86795044 1.4916992 1.3058319c0.22802734 0.2189331 0.44561768 0.43847656 0.65252686 0.65859985c0.10345459 0.110061646 0.20428467 0.22026062 0.3024292 0.33059692l0.17944336 0.2076416" fill-rule="evenodd"/><path fill="#ff0000" stroke="#ff0000" stroke-width="1.0" stroke-linecap="butt" d="m684.6187 152.69241l3.317871 3.5091705l-0.28601074 -4.820862z" fill-rule="evenodd"/></g></svg>