<svg version="1.1" viewBox="0.0 0.0 960.0 540.0" fill="none" stroke="none" stroke-linecap="square" stroke-miterlimit="10" xmlns:xlink="http://www.w3.org/1999/xlink" xmlns="http://www.w3.org/2000/svg"><clipPath id="p.0"><path d="m0 0l960.0 0l0 540.0l-960.0 0l0 -540.0z" clip-rule="nonzero"/></clipPath><g clip-path="url(#p.0)"><path fill="#000000" fill-opacity="0.0" d="m0 0l960.0 0l0 540.0l-960.0 0z" fill-rule="evenodd"/><path fill="#ffffff" d="m409.6378 274.5328l140.7244 0l0 231.90552l-140.7244 0z" fill-rule="evenodd"/><path stroke="#000000" stroke-width="1.0" stroke-linejoin="round" stroke-linecap="butt" d="m409.6378 274.5328l140.7244 0l0 231.90552l-140.7244 0z" fill-rule="evenodd"/><path fill="#cfe2f3" d="m476.3281 280.03937l69.76376 0l0 63.02362l-69.76376 0z" fill-rule="evenodd"/><path stroke="#000000" stroke-width="1.0" stroke-linejoin="round" stroke-linecap="butt" d="m476.3281 280.03937l69.76376 0l0 63.02362l-69.76376 0z" fill-rule="evenodd"/><path fill="#cfe2f3" d="m415.23358 348.04724l130.86615 0l0 63.02362l-130.86615 0z" fill-rule="evenodd"/><path stroke="#000000" stroke-width="1.0" stroke-linejoin="round" stroke-linecap="butt" d="m415.23358 348.04724l130.86615 0l0 63.02362l-130.86615 0z" fill-rule="evenodd"/><path fill="#cfe2f3" d="m469.59842 416.0551l76.50394 0l0 85.480316l-76.50394 0z" fill-rule="evenodd"/><path stroke="#000000" stroke-width="1.0" stroke-linejoin="round" stroke-linecap="butt" d="m469.59842 416.0551l76.50394 0l0 85.480316l-76.50394 0z" fill-rule="evenodd"/><path fill="#cfe2f3" d="m415.23358 280.03937l54.362213 0l0 63.02362l-54.362213 0z" fill-rule="evenodd"/><path stroke="#000000" stroke-width="1.0" stroke-linejoin="round" stroke-linecap="butt" d="m415.23358 280.03937l54.362213 0l0 63.02362l-54.362213 0z" fill-rule="evenodd"/><path fill="#cfe2f3" d="m415.23358 416.0551l48.251984 0l0 37.763794l-48.251984 0z" fill-rule="evenodd"/><path stroke="#000000" stroke-width="1.0" stroke-linejoin="round" stroke-linecap="butt" d="m415.23358 416.0551l48.251984 0l0 37.763794l-48.251984 0z" fill-rule="evenodd"/><path fill="#cfe2f3" d="m415.23358 458.80316l48.251984 0l0 42.740143l-48.251984 0z" fill-rule="evenodd"/><path stroke="#000000" stroke-width="1.0" stroke-linejoin="round" stroke-linecap="butt" d="m415.23358 458.80316l48.251984 0l0 42.740143l-48.251984 0z" fill-rule="evenodd"/><path fill="#666666" d="m393.69827 42.18146l0 0c0 -7.1399345 5.7880554 -12.927998 12.928009 -12.927998l146.74744 0c3.428711 0 6.717041 1.3620529 9.1414795 3.786522c2.4244995 2.4244728 3.78656 5.712757 3.78656 9.141476l0 244.06296c0 7.139923 -5.788086 12.9279785 -12.92804 12.9279785l-146.74744 0c-7.1399536 0 -12.928009 -5.7880554 -12.928009 -12.9279785z" fill-rule="evenodd"/><path stroke="#000000" stroke-width="1.0" stroke-linejoin="round" stroke-linecap="butt" d="m393.69827 42.18146l0 0c0 -7.1399345 5.7880554 -12.927998 12.928009 -12.927998l146.74744 0c3.428711 0 6.717041 1.3620529 9.1414795 3.786522c2.4244995 2.4244728 3.78656 5.712757 3.78656 9.141476l0 244.06296c0 7.139923 -5.788086 12.9279785 -12.92804 12.9279785l-146.74744 0c-7.1399536 0 -12.928009 -5.7880554 -12.928009 -12.9279785z" fill-rule="evenodd"/><path fill="#ffffff" d="m406.23843 42.18111l147.5231 0l0 235.72704l-147.5231 0z" fill-rule="evenodd"/><path fill="#ffffff" d="m475.63208 287.07843l0 0c0 -2.1270142 1.9555969 -3.8512878 4.36792 -3.8512878l0 0c2.412323 0 4.36792 1.7242737 4.36792 3.8512878l0 0c0 2.1269836 -1.9555969 3.8512878 -4.36792 3.8512878l0 0c-2.412323 0 -4.36792 -1.7243042 -4.36792 -3.8512878z" fill-rule="evenodd"/><path fill="#ffffff" d="m409.6378 42.627296l140.7244 0l0 231.90552l-140.7244 0z" fill-rule="evenodd"/><path stroke="#000000" stroke-width="1.0" stroke-linejoin="round" stroke-linecap="butt" d="m409.6378 42.627296l140.7244 0l0 231.90552l-140.7244 0z" fill-rule="evenodd"/><path fill="#cfe2f3" d="m476.3281 48.133858l69.76376 0l0 63.02362l-69.76376 0z" fill-rule="evenodd"/><path stroke="#000000" stroke-width="1.0" stroke-linejoin="round" stroke-linecap="butt" d="m476.3281 48.133858l69.76376 0l0 63.02362l-69.76376 0z" fill-rule="evenodd"/><path fill="#cfe2f3" d="m415.23358 116.14173l130.86615 0l0 63.02363l-130.86615 0z" fill-rule="evenodd"/><path stroke="#000000" stroke-width="1.0" stroke-linejoin="round" stroke-linecap="butt" d="m415.23358 116.14173l130.86615 0l0 63.02363l-130.86615 0z" fill-rule="evenodd"/><path fill="#cfe2f3" d="m469.59842 184.14961l76.50394 0l0 85.4803l-76.50394 0z" fill-rule="evenodd"/><path stroke="#000000" stroke-width="1.0" stroke-linejoin="round" stroke-linecap="butt" d="m469.59842 184.14961l76.50394 0l0 85.4803l-76.50394 0z" fill-rule="evenodd"/><path fill="#cfe2f3" d="m415.23358 48.133858l54.362213 0l0 63.02362l-54.362213 0z" fill-rule="evenodd"/><path stroke="#000000" stroke-width="1.0" stroke-linejoin="round" stroke-linecap="butt" d="m415.23358 48.133858l54.362213 0l0 63.02362l-54.362213 0z" fill-rule="evenodd"/><path fill="#cfe2f3" d="m415.23358 184.14961l48.251984 0l0 37.76378l-48.251984 0z" fill-rule="evenodd"/><path stroke="#000000" stroke-width="1.0" stroke-linejoin="round" stroke-linecap="butt" d="m415.23358 184.14961l48.251984 0l0 37.76378l-48.251984 0z" fill-rule="evenodd"/><path fill="#cfe2f3" d="m415.23358 226.89764l48.251984 0l0 42.740143l-48.251984 0z" fill-rule="evenodd"/><path stroke="#000000" stroke-width="1.0" stroke-linejoin="round" stroke-linecap="butt" d="m415.23358 226.89764l48.251984 0l0 42.740143l-48.251984 0z" fill-rule="evenodd"/><path fill="#ffffff" d="m409.6378 506.43832l140.7244 0l0 231.90549l-140.7244 0z" fill-rule="evenodd"/><path stroke="#000000" stroke-width="1.0" stroke-linejoin="round" stroke-linecap="butt" d="m409.6378 506.43832l140.7244 0l0 231.90549l-140.7244 0z" fill-rule="evenodd"/><path fill="#cfe2f3" d="m476.3281 511.9449l69.76376 0l0 63.02362l-69.76376 0z" fill-rule="evenodd"/><path stroke="#000000" stroke-width="1.0" stroke-linejoin="round" stroke-linecap="butt" d="m476.3281 511.9449l69.76376 0l0 63.02362l-69.76376 0z" fill-rule="evenodd"/><path fill="#cfe2f3" d="m415.23358 579.95276l130.86615 0l0 63.02362l-130.86615 0z" fill-rule="evenodd"/><path stroke="#000000" stroke-width="1.0" stroke-linejoin="round" stroke-linecap="butt" d="m415.23358 579.95276l130.86615 0l0 63.02362l-130.86615 0z" fill-rule="evenodd"/><path fill="#cfe2f3" d="m469.59842 647.96063l76.50394 0l0 85.480286l-76.50394 0z" fill-rule="evenodd"/><path stroke="#000000" stroke-width="1.0" stroke-linejoin="round" stroke-linecap="butt" d="m469.59842 647.96063l76.50394 0l0 85.480286l-76.50394 0z" fill-rule="evenodd"/><path fill="#cfe2f3" d="m415.23358 511.9449l54.362213 0l0 63.02362l-54.362213 0z" fill-rule="evenodd"/><path stroke="#000000" stroke-width="1.0" stroke-linejoin="round" stroke-linecap="butt" d="m415.23358 511.9449l54.362213 0l0 63.02362l-54.362213 0z" fill-rule="evenodd"/><path fill="#cfe2f3" d="m415.23358 647.96063l48.251984 0l0 37.763794l-48.251984 0z" fill-rule="evenodd"/><path stroke="#000000" stroke-width="1.0" stroke-linejoin="round" stroke-linecap="butt" d="m415.23358 647.96063l48.251984 0l0 37.763794l-48.251984 0z" fill-rule="evenodd"/><path fill="#cfe2f3" d="m415.23358 690.7087l48.251984 0l0 42.740112l-48.251984 0z" fill-rule="evenodd"/><path stroke="#000000" stroke-width="1.0" stroke-linejoin="round" stroke-linecap="butt" d="m415.23358 690.7087l48.251984 0l0 42.740112l-48.251984 0z" fill-rule="evenodd"/><path fill="#000000" fill-opacity="0.0" d="m409.6378 274.5328l0 3.6220398" fill-rule="evenodd"/><path stroke="#000000" stroke-width="1.0" stroke-linejoin="round" stroke-linecap="butt" d="m409.6378 274.5328l0 3.6220398" fill-rule="evenodd"/><path fill="#000000" fill-opacity="0.0" d="m550.3622 274.5328l0 3.6220398" fill-rule="evenodd"/><path stroke="#000000" stroke-width="1.0" stroke-linejoin="round" stroke-linecap="butt" d="m550.3622 274.5328l0 3.6220398" fill-rule="evenodd"/></g></svg>