<?xml version="1.0" encoding="UTF-8" standalone="no"?>
<svg
   xmlns:dc="http://purl.org/dc/elements/1.1/"
   xmlns:cc="http://creativecommons.org/ns#"
   xmlns:rdf="http://www.w3.org/1999/02/22-rdf-syntax-ns#"
   xmlns:svg="http://www.w3.org/2000/svg"
   xmlns="http://www.w3.org/2000/svg"
   version="1.1"
   id="svg2"
   viewBox="50 100 660 800">
  <defs
     id="defs4">
    <clipPath
       clipPathUnits="userSpaceOnUse"
       id="clipEmfPath1">
      <path
         d="m 37.4773,30.8813 269.5367,0 0,342.6927 -269.5367,0 z"
         id="path3341" />
    </clipPath>
    <clipPath
       clipPathUnits="userSpaceOnUse"
       id="clipEmfPath2">
      <path
         d="m 47.9709,74.6548 249.1491,0 0,288.8752 -249.1491,0 z"
         id="path3344" />
    </clipPath>
    <clipPath
       clipPathUnits="userSpaceOnUse"
       id="clipEmfPath3">
      <path
         d=""
         id="path3347" />
    </clipPath>
    <clipPath
       clipPathUnits="userSpaceOnUse"
       id="clipEmfPath4">
      <path
         d="m 57.1154,118.428 230.8596,0 0,235.208 -230.8596,0 z"
         id="path3350" />
    </clipPath>
    <clipPath
       clipPathUnits="userSpaceOnUse"
       id="clipEmfPath5">
      <path
         d="m 107.485,187.237 161.902,0 0,141.814 -161.902,0 z"
         id="path3353" />
    </clipPath>
    <clipPath
       clipPathUnits="userSpaceOnUse"
       id="clipEmfPath6">
      <path
         d="m 93.3934,172.845 161.9016,0 0,141.964 -161.9016,0 z"
         id="path3356" />
    </clipPath>
    <clipPath
       clipPathUnits="userSpaceOnUse"
       id="clipEmfPath7">
      <path
         d="m 76.0039,159.503 161.9021,0 0,141.814 -161.9021,0 z"
         id="path3359" />
    </clipPath>
    <clipPath
       clipPathUnits="userSpaceOnUse"
       id="clipEmfPath8">
      <path
         d="m 80.9509,186.937 153.0571,0 0,20.237 -153.0571,0 z"
         id="path3362" />
    </clipPath>
    <clipPath
       clipPathUnits="userSpaceOnUse"
       id="clipEmfPath9">
      <path
         d="m 80.9509,231.46 152.9071,0 0,20.387 -152.9071,0 z"
         id="path3365" />
    </clipPath>
    <clipPath
       clipPathUnits="userSpaceOnUse"
       id="clipEmfPath10">
      <path
         d="m 80.6511,276.432 153.0569,0 0,20.388 -153.0569,0 z"
         id="path3368" />
    </clipPath>
    <pattern
       id="EMFhbasepattern"
       patternUnits="userSpaceOnUse"
       width="6"
       height="6"
       x="0"
       y="0" />
  </defs>
  <g
     id="layer1">
    <text
       transform="scale(1.0105164,0.98959308)"
       xml:space="preserve"
       style="font-style:normal;font-variant:normal;font-weight:400;font-size:99.04597473px;line-height:125%;font-family:Calibri;text-align:start;letter-spacing:0px;word-spacing:0px;text-anchor:start;fill:#000000;fill-opacity:1;stroke:none"
       x="27.767134"
       y="190.83473"
       id="text3371"><tspan
         x="0"
         y="0"
         id="tspan3373"><tspan
           dx="0"
           dy="0"
           style="font-style:normal;font-variant:normal;font-weight:400;font-size:99.04597473px;font-family:Calibri;fill:#000000"
           id="tspan3375" /></tspan></text>
    <path
       style="fill:#5b9bd5;fill-opacity:1;fill-rule:evenodd;stroke:none"
       d="m 72.971565,219.66649 c 0,-55.35317 45.831885,-100.23616 102.355415,-100.23616 l 409.3846,0 c 56.52251,0 102.31686,44.88299 102.31686,100.23616 l 0,565.42733 c 0,55.35417 -45.79435,100.20026 -102.31686,100.20026 l -409.3846,0 c -56.52353,0 -102.355415,-44.84609 -102.355415,-100.20026 z"
       id="path3377" />
    <path
       style="fill:none;stroke:#41719c;stroke-width:2.4270227px;stroke-linecap:butt;stroke-linejoin:miter;stroke-miterlimit:8;stroke-dasharray:none;stroke-opacity:1"
       d="m 72.971565,219.66649 c 0,-55.35317 45.831885,-100.23616 102.355415,-100.23616 l 409.3846,0 c 56.52251,0 102.31686,44.88299 102.31686,100.23616 l 0,565.42733 c 0,55.35417 -45.79435,100.20026 -102.31686,100.20026 l -409.3846,0 c -56.52353,0 -102.355415,-44.84609 -102.355415,-100.20026 z"
       id="path3379" />
    <g
       clip-path="url(#clipEmfPath1)"
       id="g3381"
       transform="matrix(2.0450273,0,0,2.0026839,28.059288,97.364153)">
      <text
         xml:space="preserve"
         style="font-style:normal;font-variant:normal;font-weight:700;font-size:17.5625px;line-height:125%;font-family:Calibri;text-align:start;letter-spacing:0px;word-spacing:0px;text-anchor:start;fill:#000000;fill-opacity:1;stroke:none"
         transform="translate(114.98032,47.521199)"
         x="0"
         y="0"
         id="text3383"><tspan
           x="0"
           y="0"
           id="tspan3385"><tspan
             dx="0"
             dy="0"
             style="font-style:normal;font-variant:normal;font-weight:700;font-size:17.5625px;font-family:Calibri;fill:#ffffff"
             id="tspan3387">EPUB Container</tspan><tspan
             dx="-0.40602699"
             dy="0"
             style="font-style:normal;font-variant:normal;font-weight:700;font-size:17.5625px;font-family:Calibri;fill:#ffffff"
             id="tspan3389" /></tspan></text>
    </g>
    <path
       style="fill:#ffffff;fill-opacity:1;fill-rule:evenodd;stroke:none"
       d="m 97.190405,302.07655 c 0,-51.11189 42.344745,-92.57987 94.537895,-92.57987 l 378.11394,0 c 52.19315,0 94.49862,41.46798 94.49862,92.57987 l 0,468.15742 c 0,51.11246 -42.30547,92.54198 -94.49862,92.54198 l -378.11394,0 c -52.19315,0 -94.537895,-41.42952 -94.537895,-92.54198 z"
       id="path3391" />
    <path
       style="fill:none;stroke:#5b9bd5;stroke-width:2.4270227px;stroke-linecap:butt;stroke-linejoin:miter;stroke-miterlimit:8;stroke-dasharray:none;stroke-opacity:1"
       d="m 97.190405,302.07655 c 0,-51.11189 42.344745,-92.57987 94.537895,-92.57987 l 378.11394,0 c 52.19315,0 94.49862,41.46798 94.49862,92.57987 l 0,468.15742 c 0,51.11246 -42.30547,92.54198 -94.49862,92.54198 l -378.11394,0 c -52.19315,0 -94.537895,-41.42952 -94.537895,-92.54198 z"
       id="path3393" />
    <g
       clip-path="url(#clipEmfPath2)"
       id="g3395"
       transform="matrix(2.0450273,0,0,2.0026839,28.059288,97.364153)">
      <text
         xml:space="preserve"
         style="font-style:normal;font-variant:normal;font-weight:700;font-size:15px;line-height:125%;font-family:Calibri;text-align:start;letter-spacing:0px;word-spacing:0px;text-anchor:start;fill:#000000;fill-opacity:1;stroke:none"
         transform="translate(118.87795,88.746214)"
         x="0"
         y="0"
         id="text3397"><tspan
           x="0"
           y="0"
           id="tspan3399"><tspan
             dx="0"
             dy="0"
             style="font-style:normal;font-variant:normal;font-weight:700;font-size:15px;font-family:Calibri;fill:#000000"
             id="tspan3401">EPUB Publication</tspan><tspan
             dx="0"
             dy="0"
             style="font-style:normal;font-variant:normal;font-weight:700;font-size:15px;font-family:Calibri;fill:#000000"
             id="tspan3403" /></tspan></text>
    </g>
    <path
       style="fill:none;stroke:none"
       d="m 118.34354,385.23801 c 0,-47.32142 39.16412,-85.67484 87.48709,-85.67484 l 349.90906,0 c 48.28515,0 87.44948,38.35342 87.44948,85.67484 l 0,369.38499 c 0,47.28339 -39.16433,85.63673 -87.44948,85.63673 l -349.90906,0 c -48.32297,0 -87.48709,-38.35334 -87.48709,-85.63673 z"
       id="path3405" />
    <path
       transform="matrix(7.2461597,0,0,7.0961242,28.059288,97.364153)"
       style="fill:#b1cbe9;fill-opacity:1;fill-rule:evenodd;stroke:none"
       clip-path="url(#clipEmfPath3)"
       d="m 44.0733,100.889 0,12.742 256.7947,0 0,-12.742 -256.7947,0 z"
       id="path3407" />
    <path
       transform="matrix(7.2461597,0,0,7.0961242,28.059288,97.364153)"
       style="fill:#afcae9;fill-opacity:1;fill-rule:evenodd;stroke:none"
       clip-path="url(#clipEmfPath3)"
       d="m 44.0733,113.631 0,25.335 256.7947,0 0,-25.335 -256.7947,0 z"
       id="path3409" />
    <path
       transform="matrix(7.2461597,0,0,7.0961242,28.059288,97.364153)"
       style="fill:#adc8e8;fill-opacity:1;fill-rule:evenodd;stroke:none"
       clip-path="url(#clipEmfPath3)"
       d="m 44.0733,138.966 0,16.94 256.7947,0 0,-16.94 -256.7947,0 z"
       id="path3411" />
    <path
       transform="matrix(7.2461597,0,0,7.0961242,28.059288,97.364153)"
       style="fill:#abc7e8;fill-opacity:1;fill-rule:evenodd;stroke:none"
       clip-path="url(#clipEmfPath3)"
       d="m 44.0733,155.906 0,16.939 256.7947,0 0,-16.939 -256.7947,0 z"
       id="path3413" />
    <path
       transform="matrix(7.2461597,0,0,7.0961242,28.059288,97.364153)"
       style="fill:#a9c6e7;fill-opacity:1;fill-rule:evenodd;stroke:none"
       clip-path="url(#clipEmfPath3)"
       d="m 44.0733,172.845 0,20.988 256.7947,0 0,-20.988 -256.7947,0 z"
       id="path3415" />
    <path
       transform="matrix(7.2461597,0,0,7.0961242,28.059288,97.364153)"
       style="fill:#a7c4e6;fill-opacity:1;fill-rule:evenodd;stroke:none"
       clip-path="url(#clipEmfPath3)"
       d="m 44.0733,193.833 0,21.137 256.7947,0 0,-21.137 -256.7947,0 z"
       id="path3417" />
    <path
       transform="matrix(7.2461597,0,0,7.0961242,28.059288,97.364153)"
       style="fill:#a5c2e6;fill-opacity:1;fill-rule:evenodd;stroke:none"
       clip-path="url(#clipEmfPath3)"
       d="m 44.0733,214.97 0,16.939 256.7947,0 0,-16.939 -256.7947,0 z"
       id="path3419" />
    <path
       transform="matrix(7.2461597,0,0,7.0961242,28.059288,97.364153)"
       style="fill:#a3c1e5;fill-opacity:1;fill-rule:evenodd;stroke:none"
       clip-path="url(#clipEmfPath3)"
       d="m 44.0733,231.909 0,16.79 256.7947,0 0,-16.79 -256.7947,0 z"
       id="path3421" />
    <path
       transform="matrix(7.2461597,0,0,7.0961242,28.059288,97.364153)"
       style="fill:#a1c0e5;fill-opacity:1;fill-rule:evenodd;stroke:none"
       clip-path="url(#clipEmfPath3)"
       d="m 44.0733,248.699 0,16.94 256.7947,0 0,-16.94 -256.7947,0 z"
       id="path3423" />
    <path
       transform="matrix(7.2461597,0,0,7.0961242,28.059288,97.364153)"
       style="fill:#9fbfe5;fill-opacity:1;fill-rule:evenodd;stroke:none"
       clip-path="url(#clipEmfPath3)"
       d="m 44.0733,265.639 0,16.79 256.7947,0 0,-16.79 -256.7947,0 z"
       id="path3425" />
    <path
       transform="matrix(7.2461597,0,0,7.0961242,28.059288,97.364153)"
       style="fill:#9dbee5;fill-opacity:1;fill-rule:evenodd;stroke:none"
       clip-path="url(#clipEmfPath3)"
       d="m 44.0733,282.429 0,16.94 256.7947,0 0,-16.94 -256.7947,0 z"
       id="path3427" />
    <path
       transform="matrix(7.2461597,0,0,7.0961242,28.059288,97.364153)"
       style="fill:#9bbde5;fill-opacity:1;fill-rule:evenodd;stroke:none"
       clip-path="url(#clipEmfPath3)"
       d="m 44.0733,299.369 0,12.592 256.7947,0 0,-12.592 -256.7947,0 z"
       id="path3429" />
    <path
       transform="matrix(7.2461597,0,0,7.0961242,28.059288,97.364153)"
       style="fill:#99bce4;fill-opacity:1;fill-rule:evenodd;stroke:none"
       clip-path="url(#clipEmfPath3)"
       d="m 44.0733,311.961 0,12.742 256.7947,0 0,-12.742 -256.7947,0 z"
       id="path3431" />
    <path
       transform="matrix(7.2461597,0,0,7.0961242,28.059288,97.364153)"
       style="fill:#97bce4;fill-opacity:1;fill-rule:evenodd;stroke:none"
       clip-path="url(#clipEmfPath3)"
       d="m 44.0733,324.703 0,16.94 256.7947,0 0,-16.94 -256.7947,0 z"
       id="path3433" />
    <path
       transform="matrix(7.2461597,0,0,7.0961242,28.059288,97.364153)"
       style="fill:#95bbe4;fill-opacity:1;fill-rule:evenodd;stroke:none"
       clip-path="url(#clipEmfPath3)"
       d="m 44.0733,341.643 0,16.79 256.7947,0 0,-16.79 -256.7947,0 z"
       id="path3435" />
    <path
       transform="matrix(7.2461597,0,0,7.0961242,28.059288,97.364153)"
       style="fill:#92b9e4;fill-opacity:1;fill-rule:evenodd;stroke:none"
       clip-path="url(#clipEmfPath3)"
       d="m 44.0733,358.433 0,12.592 256.7947,0 0,-12.592 -256.7947,0 z"
       id="path3437" />
    <path
       style="fill:none;stroke:#5b9bd5;stroke-width:1.21351135px;stroke-linecap:butt;stroke-linejoin:miter;stroke-miterlimit:8;stroke-dasharray:none;stroke-opacity:1"
       d="m 118.34354,385.23801 c 0,-47.32142 39.16412,-85.67484 87.48709,-85.67484 l 349.90906,0 c 48.28515,0 87.44948,38.35342 87.44948,85.67484 l 0,369.38499 c 0,47.28339 -39.16433,85.63673 -87.44948,85.63673 l -349.90906,0 c -48.32297,0 -87.48709,-38.35334 -87.48709,-85.63673 z"
       id="path3439" />
    <g
       clip-path="url(#clipEmfPath4)"
       id="g3441"
       transform="matrix(2.0450273,0,0,2.0026839,28.059288,97.364153)">
      <text
         xml:space="preserve"
         style="font-style:normal;font-variant:normal;font-weight:700;font-size:13.8125px;line-height:125%;font-family:Calibri;text-align:start;letter-spacing:0px;word-spacing:0px;text-anchor:start;fill:#000000;fill-opacity:1;stroke:none"
         transform="translate(113.93095,131.62023)"
         x="0"
         y="0"
         id="text3443"><tspan
           x="0"
           y="0"
           id="tspan3445"><tspan
             dx="0"
             dy="0"
             style="font-style:normal;font-variant:normal;font-weight:700;font-size:13.8125px;font-family:Calibri;fill:#000000"
             id="tspan3447">Available Renditions</tspan><tspan
             dx="0"
             dy="0"
             style="font-style:normal;font-variant:normal;font-weight:700;font-size:13.8125px;font-family:Calibri;fill:#000000"
             id="tspan3449" /></tspan></text>
    </g>
    <path
       style="fill:#ffffff;fill-opacity:1;fill-rule:evenodd;stroke:none"
       d="m 229.32145,501.76212 c 0,-31.07364 25.7522,-56.29142 57.48079,-56.29142 l 252.612,0 c 31.76948,0 57.48161,25.21778 57.48161,56.29142 l 0,225.16378 c 0,31.11168 -25.71213,56.29143 -57.48161,56.29143 l -252.612,0 c -31.72859,0 -57.48079,-25.17975 -57.48079,-56.29143 z"
       id="path3451" />
    <path
       style="fill:none;stroke:#4472c4;stroke-width:2.4270227px;stroke-linecap:butt;stroke-linejoin:miter;stroke-miterlimit:8;stroke-dasharray:none;stroke-opacity:1"
       d="m 229.32145,501.76212 c 0,-31.07364 25.7522,-56.29142 57.48079,-56.29142 l 252.612,0 c 31.76948,0 57.48161,25.21778 57.48161,56.29142 l 0,225.16378 c 0,31.11168 -25.71213,56.29143 -57.48161,56.29143 l -252.612,0 c -31.72859,0 -57.48079,-25.17975 -57.48079,-56.29143 z"
       id="path3453" />
    <g
       clip-path="url(#clipEmfPath5)"
       id="g3455"
       transform="matrix(2.0450273,0,0,2.0026839,28.059288,97.364153)">
      <text
         xml:space="preserve"
         style="font-style:normal;font-variant:normal;font-weight:400;font-size:13.8125px;line-height:125%;font-family:Calibri;text-align:start;letter-spacing:0px;word-spacing:0px;text-anchor:start;fill:#000000;fill-opacity:1;stroke:none"
         transform="translate(149.00969,200.42853)"
         x="0"
         y="0"
         id="text3457"><tspan
           x="0"
           y="0"
           id="tspan3459"><tspan
             dx="0"
             dy="0"
             style="font-style:normal;font-variant:normal;font-weight:400;font-size:13.8125px;font-family:Calibri;fill:#000000"
             id="tspan3461">EPUB Package</tspan><tspan
             dx="-0.387566"
             dy="0"
             style="font-style:normal;font-variant:normal;font-weight:400;font-size:13.8125px;font-family:Calibri;fill:#000000"
             id="tspan3463" /></tspan></text>
    </g>
    <path
       style="fill:#ffffff;fill-opacity:1;fill-rule:evenodd;stroke:none"
       d="m 200.81049,472.93951 c 0,-31.07166 25.75184,-56.29142 57.48205,-56.29142 l 252.30524,0 c 31.76746,0 57.48161,25.21976 57.48161,56.29142 l 0,225.16577 c 0,31.11168 -25.71415,56.29142 -57.48161,56.29142 l -252.30524,0 c -31.73021,0 -57.48205,-25.17974 -57.48205,-56.29142 z"
       id="path3465" />
    <path
       style="fill:none;stroke:#4472c4;stroke-width:2.4270227px;stroke-linecap:butt;stroke-linejoin:miter;stroke-miterlimit:8;stroke-dasharray:none;stroke-opacity:1"
       d="m 200.81049,472.93951 c 0,-31.07166 25.75184,-56.29142 57.48205,-56.29142 l 252.30524,0 c 31.76746,0 57.48161,25.21976 57.48161,56.29142 l 0,225.16577 c 0,31.11168 -25.71415,56.29142 -57.48161,56.29142 l -252.30524,0 c -31.73021,0 -57.48205,-25.17974 -57.48205,-56.29142 z"
       id="path3467" />
    <g
       clip-path="url(#clipEmfPath6)"
       id="g3469"
       transform="matrix(2.0450273,0,0,2.0026839,28.059288,97.364153)">
      <text
         xml:space="preserve"
         style="font-style:normal;font-variant:normal;font-weight:400;font-size:13.8125px;line-height:125%;font-family:Calibri;text-align:start;letter-spacing:0px;word-spacing:0px;text-anchor:start;fill:#000000;fill-opacity:1;stroke:none"
         transform="translate(134.91823,185.88734)"
         x="0"
         y="0"
         id="text3471"><tspan
           x="0"
           y="0"
           id="tspan3473"><tspan
             dx="0"
             dy="0"
             style="font-style:normal;font-variant:normal;font-weight:400;font-size:13.8125px;font-family:Calibri;fill:#000000"
             id="tspan3475">EPUB Package</tspan><tspan
             dx="-0.387566"
             dy="0"
             style="font-style:normal;font-variant:normal;font-weight:400;font-size:13.8125px;font-family:Calibri;fill:#000000"
             id="tspan3477" /></tspan></text>
    </g>
    <path
       style="fill:#ffffff;fill-opacity:1;fill-rule:evenodd;stroke:none"
       d="m 164.94193,446.21969 c 0,-31.07165 25.75183,-56.29142 57.48168,-56.29142 l 252.61321,0 c 31.76745,0 57.47958,25.21977 57.47958,56.29142 l 0,225.16577 c 0,31.11168 -25.71213,56.29142 -57.47958,56.29142 l -252.61321,0 c -31.72985,0 -57.48168,-25.17974 -57.48168,-56.29142 z"
       id="path3479" />
    <path
       style="fill:none;stroke:#4472c4;stroke-width:2.4270227px;stroke-linecap:butt;stroke-linejoin:miter;stroke-miterlimit:8;stroke-dasharray:none;stroke-opacity:1"
       d="m 164.94193,446.21969 c 0,-31.07165 25.75183,-56.29142 57.48168,-56.29142 l 252.61321,0 c 31.76745,0 57.47958,25.21977 57.47958,56.29142 l 0,225.16577 c 0,31.11168 -25.71213,56.29142 -57.47958,56.29142 l -252.61321,0 c -31.72985,0 -57.48168,-25.17974 -57.48168,-56.29142 z"
       id="path3481" />
    <g
       clip-path="url(#clipEmfPath7)"
       id="g3483"
       transform="matrix(2.0450273,0,0,2.0026839,28.059288,97.364153)">
      <text
         xml:space="preserve"
         style="font-style:normal;font-variant:normal;font-weight:400;font-size:13.8125px;line-height:125%;font-family:Calibri;text-align:start;letter-spacing:0px;word-spacing:0px;text-anchor:start;fill:#000000;fill-opacity:1;stroke:none"
         transform="translate(114.38068,172.69534)"
         x="0"
         y="0"
         id="text3485"><tspan
           x="0"
           y="0"
           id="tspan3487"><tspan
             dx="0"
             dy="0"
             style="font-style:normal;font-variant:normal;font-weight:400;font-size:13.8125px;font-family:Calibri;fill:#000000"
             id="tspan3489" /><tspan
             dx="0"
             dy="0"
             style="font-style:normal;font-variant:normal;font-weight:400;font-size:13.8125px;font-family:Calibri;fill:#000000"
             id="tspan3491">EPUB Package</tspan><tspan
             dx="-0.53747499"
             dy="0"
             style="font-style:normal;font-variant:normal;font-weight:400;font-size:13.8125px;font-family:Calibri;fill:#000000"
             id="tspan3493" /></tspan></text>
    </g>
    <path
       style="fill:#5b9bd5;fill-opacity:1;fill-rule:evenodd;stroke:none"
       d="m 188.85425,469.33667 c 0,-6.21032 5.15427,-11.25708 11.49633,-11.25708 l 299.21014,0 c 6.36213,0 11.49719,5.04676 11.49719,11.25708 l 0,45.03434 c 0,6.22841 -5.13506,11.25715 -11.49719,11.25715 l -299.21014,0 c -6.34206,0 -11.49633,-5.02874 -11.49633,-11.25715 z"
       id="path3495" />
    <path
       style="fill:none;stroke:#41719c;stroke-width:2.4270227px;stroke-linecap:butt;stroke-linejoin:miter;stroke-miterlimit:8;stroke-dasharray:none;stroke-opacity:1"
       d="m 188.85425,469.33667 c 0,-6.21032 5.15427,-11.25708 11.49633,-11.25708 l 299.21014,0 c 6.36213,0 11.49719,5.04676 11.49719,11.25708 l 0,45.03434 c 0,6.22841 -5.13506,11.25715 -11.49719,11.25715 l -299.21014,0 c -6.34206,0 -11.49633,-5.02874 -11.49633,-11.25715 z"
       id="path3497" />
    <g
       clip-path="url(#clipEmfPath8)"
       id="g3499"
       transform="matrix(2.0450273,0,0,2.0026839,28.059288,97.364153)">
      <text
         xml:space="preserve"
         style="font-style:normal;font-variant:normal;font-weight:400;font-size:13.8125px;line-height:125%;font-family:Calibri;text-align:start;letter-spacing:0px;word-spacing:0px;text-anchor:start;fill:#000000;fill-opacity:1;stroke:none"
         transform="translate(103.88704,199.82889)"
         x="0"
         y="0"
         id="text3501"><tspan
           x="0"
           y="0"
           id="tspan3503"><tspan
             dx="0"
             dy="0"
             style="font-style:normal;font-variant:normal;font-weight:400;font-size:13.8125px;font-family:Calibri;fill:#ffffff"
             id="tspan3505">Package Document</tspan><tspan
             dx="-0.46882999"
             dy="0"
             style="font-style:normal;font-variant:normal;font-weight:400;font-size:13.8125px;font-family:Calibri;fill:#ffffff"
             id="tspan3507" /></tspan></text>
    </g>
    <path
       style="fill:#5b9bd5;fill-opacity:1;fill-rule:evenodd;stroke:none"
       d="m 188.85425,558.56028 c 0,-6.24842 5.17354,-11.3152 11.55379,-11.3152 l 298.80914,0 c 6.38046,0 11.53393,5.06678 11.53393,11.3152 l 0,45.23864 c 0,6.24835 -5.15347,11.29512 -11.53393,11.29512 l -298.80914,0 c -6.38025,0 -11.55379,-5.04677 -11.55379,-11.29512 z"
       id="path3509" />
    <path
       style="fill:none;stroke:#41719c;stroke-width:2.4270227px;stroke-linecap:butt;stroke-linejoin:miter;stroke-miterlimit:8;stroke-dasharray:none;stroke-opacity:1"
       d="m 188.85425,558.56028 c 0,-6.24842 5.17354,-11.3152 11.55379,-11.3152 l 298.80914,0 c 6.38046,0 11.53393,5.06678 11.53393,11.3152 l 0,45.23864 c 0,6.24835 -5.15347,11.29512 -11.53393,11.29512 l -298.80914,0 c -6.38025,0 -11.55379,-5.04677 -11.55379,-11.29512 z"
       id="path3511" />
    <g
       clip-path="url(#clipEmfPath9)"
       id="g3513"
       transform="matrix(2.0450273,0,0,2.0026839,28.059288,97.364153)">
      <text
         xml:space="preserve"
         style="font-style:normal;font-variant:normal;font-weight:400;font-size:13.8125px;line-height:125%;font-family:Calibri;text-align:start;letter-spacing:0px;word-spacing:0px;text-anchor:start;fill:#000000;fill-opacity:1;stroke:none"
         transform="translate(96.691399,244.35191)"
         x="0"
         y="0"
         id="text3515"><tspan
           x="0"
           y="0"
           id="tspan3517"><tspan
             dx="0"
             dy="0"
             style="font-style:normal;font-variant:normal;font-weight:400;font-size:13.8125px;font-family:Calibri;fill:#ffffff"
             id="tspan3519">Navigation Document</tspan><tspan
             dx="-0.61170101"
             dy="0"
             style="font-style:normal;font-variant:normal;font-weight:400;font-size:13.8125px;font-family:Calibri;fill:#ffffff"
             id="tspan3521" /></tspan></text>
    </g>
    <path
       style="fill:#5b9bd5;fill-opacity:1;fill-rule:evenodd;stroke:none"
       d="m 188.24116,648.625 c 0,-6.24842 5.17332,-11.31321 11.55378,-11.31321 l 299.11551,0 c 6.38046,0 11.53393,5.06479 11.53393,11.31321 l 0,45.24063 c 0,6.24835 -5.15347,11.29511 -11.53393,11.29511 l -299.11551,0 c -6.38046,0 -11.55378,-5.04676 -11.55378,-11.29511 z"
       id="path3523" />
    <path
       style="fill:none;stroke:#41719c;stroke-width:2.4270227px;stroke-linecap:butt;stroke-linejoin:miter;stroke-miterlimit:8;stroke-dasharray:none;stroke-opacity:1"
       d="m 188.24116,648.64501 c 0,-6.26843 5.17332,-11.33322 11.57298,-11.33322 l 299.09631,0 c 6.39887,0 11.53393,5.06479 11.53393,11.33322 l 0,45.22062 c 0,6.26637 -5.13506,11.29511 -11.53393,11.29511 l -299.09631,0 c -6.39966,0 -11.57298,-5.02874 -11.57298,-11.29511 z"
       id="path3525" />
    <g
       clip-path="url(#clipEmfPath10)"
       id="g3527"
       transform="matrix(2.0450273,0,0,2.0026839,28.059288,97.364153)">
      <text
         xml:space="preserve"
         style="font-style:normal;font-variant:normal;font-weight:400;font-size:13.8125px;line-height:125%;font-family:Calibri;text-align:start;letter-spacing:0px;word-spacing:0px;text-anchor:start;fill:#000000;fill-opacity:1;stroke:none"
         transform="translate(95.941853,289.32465)"
         x="0"
         y="0"
         id="text3529"><tspan
           x="0"
           y="0"
           id="tspan3531"><tspan
             dx="0"
             dy="0"
             style="font-style:normal;font-variant:normal;font-weight:400;font-size:13.8125px;font-family:Calibri;fill:#ffffff"
             id="tspan3533">Publication Resources</tspan><tspan
             dx="-0.67669398"
             dy="0"
             style="font-style:normal;font-variant:normal;font-weight:400;font-size:13.8125px;font-family:Calibri;fill:#ffffff"
             id="tspan3535" /></tspan></text>
    </g>
  </g>
</svg>
