<svg xmlns="http://www.w3.org/2000/svg" xmlns:xlink="http://www.w3.org/1999/xlink"
	 width="207px" height="194px" viewBox="0 0 207 194" xml:space="preserve">
<g>
	<g>
		<line fill="none" stroke="#000000" stroke-miterlimit="10" x1="21.171" y1="180.449" x2="201.071" y2="180.449"/>
		<g>
			<g>
				<line fill="none" stroke="#000000" stroke-miterlimit="10" x1="21.171" y1="180.449" x2="21.171" y2="176.107"/>
				<line fill="none" stroke="#000000" stroke-miterlimit="10" x1="66.146" y1="180.449" x2="66.146" y2="176.107"/>
				<line fill="none" stroke="#000000" stroke-miterlimit="10" x1="111.121" y1="180.449" x2="111.121" y2="176.107"/>
				<line fill="none" stroke="#000000" stroke-miterlimit="10" x1="156.096" y1="180.449" x2="156.096" y2="176.107"/>
				<line fill="none" stroke="#000000" stroke-miterlimit="10" x1="201.071" y1="180.449" x2="201.071" y2="176.107"/>
			</g>
			<g>
			</g>
		</g>
	</g>
	<g>
		<g>
			<text transform="matrix(1 0 0 1 13.6699 183.6113)" font-family="'Helvetica'" font-size="8.4328">0</text>
			<text transform="matrix(1 0 0 1 8.98 148.8867)" font-family="'Helvetica'" font-size="8.4328">30</text>
			<text transform="matrix(1 0 0 1 8.98 114.1621)" font-family="'Helvetica'" font-size="8.4328">60</text>
			<text transform="matrix(1 0 0 1 8.98 79.438)" font-family="'Helvetica'" font-size="8.4328">90</text>
			<text transform="matrix(1 0 0 1 4.29 44.7139)" font-family="'Helvetica'" font-size="8.4328">120</text>
			<text transform="matrix(1 0 0 1 4.29 9.9897)" font-family="'Helvetica'" font-size="8.4328">150</text>
		</g>
		<line fill="none" stroke="#000000" stroke-miterlimit="10" x1="21.171" y1="180.449" x2="21.171" y2="6.828"/>
		<g>
			<g>
				<line fill="none" stroke="#000000" stroke-miterlimit="10" x1="21.171" y1="180.449" x2="25.668" y2="180.449"/>
				<line fill="none" stroke="#000000" stroke-miterlimit="10" x1="21.171" y1="145.725" x2="25.668" y2="145.725"/>
				<line fill="none" stroke="#000000" stroke-miterlimit="10" x1="21.171" y1="111" x2="25.668" y2="111"/>
				<line fill="none" stroke="#000000" stroke-miterlimit="10" x1="21.171" y1="76.276" x2="25.668" y2="76.276"/>
				<line fill="none" stroke="#000000" stroke-miterlimit="10" x1="21.171" y1="41.552" x2="25.668" y2="41.552"/>
				<line fill="none" stroke="#000000" stroke-miterlimit="10" x1="21.171" y1="6.828" x2="25.668" y2="6.828"/>
			</g>
			<g>
			</g>
		</g>
	</g>
	<g>
		<g>
			<g>
				
					<rect x="44.558" y="64.701" fill="#DC5D1E" stroke="#000000" stroke-width="0.5" stroke-miterlimit="10" width="16.191" height="115.748"/>
					<rect x="89.533" y="35.765" fill="#DC5D1E" stroke="#000000" stroke-width="0.5" stroke-miterlimit="10" width="16.191" height="144.685"/>
					<rect x="134.508" y="12.615" fill="#DC5D1E" stroke="#000000" stroke-width="0.5" stroke-miterlimit="10" width="16.191" height="167.834"/>
					<rect x="179.483" y="12.615" fill="#DC5D1E" stroke="#000000" stroke-width="0.5" stroke-miterlimit="10" width="16.191" height="167.834"/>
			</g>
		</g>
		<g>
			<g>
				
					<rect x="26.568" y="41.552" fill="#DCF019" stroke="#000000" stroke-width="0.5" stroke-miterlimit="10" width="16.191" height="138.897"/>
					<rect x="71.543" y="18.402" fill="#DCF019" stroke="#000000" stroke-width="0.5" stroke-miterlimit="10" width="16.191" height="162.047"/>
					<rect x="116.518" y="6.828" fill="#DCF019" stroke="#000000" stroke-width="0.5" stroke-miterlimit="10" width="16.191" height="173.622"/>
					<rect x="161.493" y="35.765" fill="#DCF019" stroke="#000000" stroke-width="0.5" stroke-miterlimit="10" width="16.191" height="144.685"/>
			</g>
		</g>
	</g>
	<g>
		<g>
		</g>
		<g>
		</g>
	</g>
	<g>
		<text transform="matrix(1 0 0 1 171.085 189.4863)" font-family="'Helvetica'" font-size="8.4328">Dec</text>
		<text transform="matrix(1 0 0 1 126.1104 189.4863)" font-family="'Helvetica'" font-size="8.4328">Nov</text>
		<text transform="matrix(1 0 0 1 82.0747 189.4863)" font-family="'Helvetica'" font-size="8.4328">Oct</text>
		<text transform="matrix(1 0 0 1 36.1558 189.4863)" font-family="'Helvetica'" font-size="8.4328">Sep</text>
	</g>
</g>
</svg>
